<svg id="visual" viewBox="0 0 960 540" width="960" height="540" xmlns="http://www.w3.org/2000/svg" xmlns:xlink="http://www.w3.org/1999/xlink" version="1.1"><g stroke-width="1" stroke-linejoin="bevel"><path d="M510 278.6L558 279.6L541 174.3Z" fill="#246688" stroke="#246688"></path><path d="M558 279.6L594 250.4L541 174.3Z" fill="#081a28" stroke="#081a28"></path><path d="M541 174.3L458 202.4L510 278.6Z" fill="#205a7a" stroke="#205a7a"></path><path d="M541 174.3L471 174.3L458 202.4Z" fill="#0c2435" stroke="#0c2435"></path><path d="M594 250.4L622 200.4L541 174.3Z" fill="#00101c" stroke="#00101c"></path><path d="M622 200.4L645 155.3L541 174.3Z" fill="#246688" stroke="#246688"></path><path d="M541 174.3L502 61.1L471 174.3Z" fill="#205a7a" stroke="#205a7a"></path><path d="M333 218.4L401 256.4L458 202.4Z" fill="#246688" stroke="#246688"></path><path d="M458 202.4L401 256.4L510 278.6Z" fill="#15384f" stroke="#15384f"></path><path d="M558 279.6L627 334.6L594 250.4Z" fill="#15384f" stroke="#15384f"></path><path d="M594 250.4L703 186.3L622 200.4Z" fill="#205a7a" stroke="#205a7a"></path><path d="M622 200.4L703 186.3L645 155.3Z" fill="#297ea6" stroke="#297ea6"></path><path d="M559 394.7L627 334.6L558 279.6Z" fill="#112e42" stroke="#112e42"></path><path d="M559 394.7L558 279.6L510 278.6Z" fill="#112e42" stroke="#112e42"></path><path d="M401 256.4L425 317.6L510 278.6Z" fill="#0c2435" stroke="#0c2435"></path><path d="M645 155.3L564 90.1L541 174.3Z" fill="#081a28" stroke="#081a28"></path><path d="M472 403.7L559 394.7L510 278.6Z" fill="#1d4e6b" stroke="#1d4e6b"></path><path d="M564 90.1L502 61.1L541 174.3Z" fill="#081a28" stroke="#081a28"></path><path d="M471 174.3L366 127.3L458 202.4Z" fill="#081a28" stroke="#081a28"></path><path d="M741 316.6L703 186.3L594 250.4Z" fill="#1d4e6b" stroke="#1d4e6b"></path><path d="M645 155.3L647 58.1L564 90.1Z" fill="#246688" stroke="#246688"></path><path d="M347 296.6L429 375.7L425 317.6Z" fill="#277297" stroke="#277297"></path><path d="M425 317.6L472 403.7L510 278.6Z" fill="#246688" stroke="#246688"></path><path d="M429 375.7L472 403.7L425 317.6Z" fill="#297ea6" stroke="#297ea6"></path><path d="M374 77.1L366 127.3L471 174.3Z" fill="#00101c" stroke="#00101c"></path><path d="M401 256.4L347 296.6L425 317.6Z" fill="#15384f" stroke="#15384f"></path><path d="M703 186.3L692 109.1L645 155.3Z" fill="#277297" stroke="#277297"></path><path d="M564 90.1L536 0L502 61.1Z" fill="#277297" stroke="#277297"></path><path d="M333 218.4L347 296.6L401 256.4Z" fill="#19435d" stroke="#19435d"></path><path d="M366 127.3L333 218.4L458 202.4Z" fill="#1d4e6b" stroke="#1d4e6b"></path><path d="M692 109.1L647 58.1L645 155.3Z" fill="#277297" stroke="#277297"></path><path d="M741 316.6L739 204.4L703 186.3Z" fill="#246688" stroke="#246688"></path><path d="M703 186.3L786 170.3L692 109.1Z" fill="#277297" stroke="#277297"></path><path d="M616 438.9L659 402.7L559 394.7Z" fill="#277297" stroke="#277297"></path><path d="M559 394.7L659 402.7L627 334.6Z" fill="#297ea6" stroke="#297ea6"></path><path d="M627 334.6L741 316.6L594 250.4Z" fill="#0c2435" stroke="#0c2435"></path><path d="M502 61.1L374 77.1L471 174.3Z" fill="#19435d" stroke="#19435d"></path><path d="M366 127.3L319 131.3L333 218.4Z" fill="#19435d" stroke="#19435d"></path><path d="M465 474.9L542 451.9L472 403.7Z" fill="#19435d" stroke="#19435d"></path><path d="M472 403.7L542 451.9L559 394.7Z" fill="#19435d" stroke="#19435d"></path><path d="M703 401.7L741 316.6L627 334.6Z" fill="#0c2435" stroke="#0c2435"></path><path d="M542 451.9L616 438.9L559 394.7Z" fill="#19435d" stroke="#19435d"></path><path d="M624 0L536 0L564 90.1Z" fill="#112e42" stroke="#112e42"></path><path d="M502 61.1L445 0L374 77.1Z" fill="#081a28" stroke="#081a28"></path><path d="M374 77.1L319 131.3L366 127.3Z" fill="#00101c" stroke="#00101c"></path><path d="M659 402.7L703 401.7L627 334.6Z" fill="#0c2435" stroke="#0c2435"></path><path d="M714 485.9L703 401.7L659 402.7Z" fill="#246688" stroke="#246688"></path><path d="M699 0L624 0L647 58.1Z" fill="#15384f" stroke="#15384f"></path><path d="M647 58.1L624 0L564 90.1Z" fill="#0c2435" stroke="#0c2435"></path><path d="M536 0L445 0L502 61.1Z" fill="#00101c" stroke="#00101c"></path><path d="M374 77.1L285 102.1L319 131.3Z" fill="#246688" stroke="#246688"></path><path d="M741 316.6L785 274.6L739 204.4Z" fill="#19435d" stroke="#19435d"></path><path d="M739 204.4L786 170.3L703 186.3Z" fill="#277297" stroke="#277297"></path><path d="M811 374.7L785 274.6L741 316.6Z" fill="#277297" stroke="#277297"></path><path d="M429 375.7L465 474.9L472 403.7Z" fill="#081a28" stroke="#081a28"></path><path d="M542 451.9L543 540L616 438.9Z" fill="#15384f" stroke="#15384f"></path><path d="M366 469.9L465 474.9L429 375.7Z" fill="#0c2435" stroke="#0c2435"></path><path d="M816 245.4L786 170.3L739 204.4Z" fill="#1d4e6b" stroke="#1d4e6b"></path><path d="M692 109.1L699 0L647 58.1Z" fill="#297ea6" stroke="#297ea6"></path><path d="M333 218.4L265 239.4L347 296.6Z" fill="#297ea6" stroke="#297ea6"></path><path d="M347 296.6L333 435.9L429 375.7Z" fill="#00101c" stroke="#00101c"></path><path d="M319 131.3L265 239.4L333 218.4Z" fill="#277297" stroke="#277297"></path><path d="M445 0L377 0L374 77.1Z" fill="#00101c" stroke="#00101c"></path><path d="M319 131.3L215 186.3L265 239.4Z" fill="#0c2435" stroke="#0c2435"></path><path d="M265 239.4L261 286.6L347 296.6Z" fill="#297ea6" stroke="#297ea6"></path><path d="M352 0L285 102.1L374 77.1Z" fill="#277297" stroke="#277297"></path><path d="M875 358.7L816 245.4L785 274.6Z" fill="#297ea6" stroke="#297ea6"></path><path d="M785 274.6L816 245.4L739 204.4Z" fill="#081a28" stroke="#081a28"></path><path d="M816 94.1L699 0L692 109.1Z" fill="#205a7a" stroke="#205a7a"></path><path d="M295 416.7L333 435.9L347 296.6Z" fill="#0c2435" stroke="#0c2435"></path><path d="M377 0L352 0L374 77.1Z" fill="#081a28" stroke="#081a28"></path><path d="M333 435.9L366 469.9L429 375.7Z" fill="#19435d" stroke="#19435d"></path><path d="M272 392.7L295 416.7L347 296.6Z" fill="#19435d" stroke="#19435d"></path><path d="M333 435.9L294 540L366 469.9Z" fill="#081a28" stroke="#081a28"></path><path d="M261 286.6L272 392.7L347 296.6Z" fill="#112e42" stroke="#112e42"></path><path d="M480 540L543 540L465 474.9Z" fill="#277297" stroke="#277297"></path><path d="M465 474.9L543 540L542 451.9Z" fill="#277297" stroke="#277297"></path><path d="M616 438.9L714 485.9L659 402.7Z" fill="#00101c" stroke="#00101c"></path><path d="M847 136.3L816 94.1L786 170.3Z" fill="#277297" stroke="#277297"></path><path d="M786 170.3L816 94.1L692 109.1Z" fill="#297ea6" stroke="#297ea6"></path><path d="M778 481.9L811 374.7L703 401.7Z" fill="#205a7a" stroke="#205a7a"></path><path d="M703 401.7L811 374.7L741 316.6Z" fill="#246688" stroke="#246688"></path><path d="M672 540L714 485.9L616 438.9Z" fill="#297ea6" stroke="#297ea6"></path><path d="M415 540L480 540L465 474.9Z" fill="#205a7a" stroke="#205a7a"></path><path d="M161 137.3L215 186.3L285 102.1Z" fill="#297ea6" stroke="#297ea6"></path><path d="M285 102.1L215 186.3L319 131.3Z" fill="#1d4e6b" stroke="#1d4e6b"></path><path d="M265 239.4L137 212.4L261 286.6Z" fill="#297ea6" stroke="#297ea6"></path><path d="M154 373.7L251 442.9L272 392.7Z" fill="#081a28" stroke="#081a28"></path><path d="M816 245.4L847 136.3L786 170.3Z" fill="#00101c" stroke="#00101c"></path><path d="M885 239.4L847 136.3L816 245.4Z" fill="#246688" stroke="#246688"></path><path d="M294 540L415 540L366 469.9Z" fill="#081a28" stroke="#081a28"></path><path d="M366 469.9L415 540L465 474.9Z" fill="#0c2435" stroke="#0c2435"></path><path d="M543 540L672 540L616 438.9Z" fill="#19435d" stroke="#19435d"></path><path d="M714 485.9L778 481.9L703 401.7Z" fill="#081a28" stroke="#081a28"></path><path d="M352 0L244 47.1L285 102.1Z" fill="#19435d" stroke="#19435d"></path><path d="M907 330.6L885 239.4L816 245.4Z" fill="#0c2435" stroke="#0c2435"></path><path d="M738 540L778 481.9L714 485.9Z" fill="#0c2435" stroke="#0c2435"></path><path d="M811 374.7L875 358.7L785 274.6Z" fill="#277297" stroke="#277297"></path><path d="M960 68.1L855 86.1L847 136.3Z" fill="#00101c" stroke="#00101c"></path><path d="M847 136.3L855 86.1L816 94.1Z" fill="#205a7a" stroke="#205a7a"></path><path d="M816 94.1L802 0L699 0Z" fill="#0c2435" stroke="#0c2435"></path><path d="M855 86.1L802 0L816 94.1Z" fill="#081a28" stroke="#081a28"></path><path d="M272 392.7L251 442.9L295 416.7Z" fill="#081a28" stroke="#081a28"></path><path d="M295 416.7L251 442.9L333 435.9Z" fill="#00101c" stroke="#00101c"></path><path d="M154 373.7L272 392.7L261 286.6Z" fill="#246688" stroke="#246688"></path><path d="M859 489.9L875 358.7L811 374.7Z" fill="#081a28" stroke="#081a28"></path><path d="M672 540L738 540L714 485.9Z" fill="#297ea6" stroke="#297ea6"></path><path d="M960 410.7L907 330.6L875 358.7Z" fill="#277297" stroke="#277297"></path><path d="M244 47.1L161 137.3L285 102.1Z" fill="#277297" stroke="#277297"></path><path d="M215 186.3L137 212.4L265 239.4Z" fill="#15384f" stroke="#15384f"></path><path d="M859 489.9L811 374.7L778 481.9Z" fill="#00101c" stroke="#00101c"></path><path d="M875 358.7L907 330.6L816 245.4Z" fill="#297ea6" stroke="#297ea6"></path><path d="M885 239.4L960 187.3L847 136.3Z" fill="#0c2435" stroke="#0c2435"></path><path d="M352 0L217 0L244 47.1Z" fill="#1d4e6b" stroke="#1d4e6b"></path><path d="M244 47.1L147 78.1L161 137.3Z" fill="#0c2435" stroke="#0c2435"></path><path d="M251 442.9L294 540L333 435.9Z" fill="#277297" stroke="#277297"></path><path d="M161 137.3L137 212.4L215 186.3Z" fill="#00101c" stroke="#00101c"></path><path d="M251 442.9L264 540L294 540Z" fill="#205a7a" stroke="#205a7a"></path><path d="M127 306.6L154 373.7L261 286.6Z" fill="#297ea6" stroke="#297ea6"></path><path d="M128 540L264 540L251 442.9Z" fill="#297ea6" stroke="#297ea6"></path><path d="M137 212.4L127 306.6L261 286.6Z" fill="#19435d" stroke="#19435d"></path><path d="M817 540L859 489.9L778 481.9Z" fill="#15384f" stroke="#15384f"></path><path d="M161 137.3L95 185.3L137 212.4Z" fill="#1d4e6b" stroke="#1d4e6b"></path><path d="M137 212.4L87 283.6L127 306.6Z" fill="#1d4e6b" stroke="#1d4e6b"></path><path d="M217 0L147 78.1L244 47.1Z" fill="#19435d" stroke="#19435d"></path><path d="M738 540L817 540L778 481.9Z" fill="#205a7a" stroke="#205a7a"></path><path d="M960 305.6L885 239.4L907 330.6Z" fill="#15384f" stroke="#15384f"></path><path d="M960 305.6L960 214.4L885 239.4Z" fill="#0c2435" stroke="#0c2435"></path><path d="M855 86.1L900 0L802 0Z" fill="#1d4e6b" stroke="#1d4e6b"></path><path d="M960 214.4L960 187.3L885 239.4Z" fill="#112e42" stroke="#112e42"></path><path d="M960 68.1L900 0L855 86.1Z" fill="#15384f" stroke="#15384f"></path><path d="M960 410.7L960 305.6L907 330.6Z" fill="#277297" stroke="#277297"></path><path d="M217 0L163 0L147 78.1Z" fill="#277297" stroke="#277297"></path><path d="M80 397.7L145 435.9L154 373.7Z" fill="#297ea6" stroke="#297ea6"></path><path d="M154 373.7L145 435.9L251 442.9Z" fill="#081a28" stroke="#081a28"></path><path d="M88 99.1L161 137.3L147 78.1Z" fill="#0c2435" stroke="#0c2435"></path><path d="M88 99.1L95 185.3L161 137.3Z" fill="#00101c" stroke="#00101c"></path><path d="M127 306.6L80 397.7L154 373.7Z" fill="#15384f" stroke="#15384f"></path><path d="M95 185.3L87 283.6L137 212.4Z" fill="#1d4e6b" stroke="#1d4e6b"></path><path d="M960 187.3L960 68.1L847 136.3Z" fill="#081a28" stroke="#081a28"></path><path d="M817 540L872 540L859 489.9Z" fill="#297ea6" stroke="#297ea6"></path><path d="M859 489.9L960 410.7L875 358.7Z" fill="#0c2435" stroke="#0c2435"></path><path d="M960 471.9L960 410.7L859 489.9Z" fill="#277297" stroke="#277297"></path><path d="M100 0L88 99.1L147 78.1Z" fill="#081a28" stroke="#081a28"></path><path d="M95 185.3L48 262.4L87 283.6Z" fill="#1d4e6b" stroke="#1d4e6b"></path><path d="M960 68.1L960 0L900 0Z" fill="#081a28" stroke="#081a28"></path><path d="M0 394.7L80 397.7L87 283.6Z" fill="#1d4e6b" stroke="#1d4e6b"></path><path d="M87 283.6L80 397.7L127 306.6Z" fill="#081a28" stroke="#081a28"></path><path d="M145 435.9L128 540L251 442.9Z" fill="#00101c" stroke="#00101c"></path><path d="M0 257.4L48 262.4L95 185.3Z" fill="#277297" stroke="#277297"></path><path d="M872 540L960 471.9L859 489.9Z" fill="#1d4e6b" stroke="#1d4e6b"></path><path d="M163 0L100 0L147 78.1Z" fill="#246688" stroke="#246688"></path><path d="M0 126.3L0 257.4L95 185.3Z" fill="#0c2435" stroke="#0c2435"></path><path d="M86 540L94 458.9L0 540Z" fill="#112e42" stroke="#112e42"></path><path d="M80 397.7L94 458.9L145 435.9Z" fill="#1d4e6b" stroke="#1d4e6b"></path><path d="M94 458.9L128 540L145 435.9Z" fill="#0c2435" stroke="#0c2435"></path><path d="M872 540L960 540L960 471.9Z" fill="#0c2435" stroke="#0c2435"></path><path d="M48 262.4L0 273.6L87 283.6Z" fill="#112e42" stroke="#112e42"></path><path d="M94 458.9L86 540L128 540Z" fill="#277297" stroke="#277297"></path><path d="M0 126.3L95 185.3L88 99.1Z" fill="#246688" stroke="#246688"></path><path d="M0 257.4L0 273.6L48 262.4Z" fill="#081a28" stroke="#081a28"></path><path d="M0 81.1L0 126.3L88 99.1Z" fill="#19435d" stroke="#19435d"></path><path d="M0 438.9L94 458.9L80 397.7Z" fill="#00101c" stroke="#00101c"></path><path d="M100 0L0 81.1L88 99.1Z" fill="#19435d" stroke="#19435d"></path><path d="M0 273.6L0 394.7L87 283.6Z" fill="#0c2435" stroke="#0c2435"></path><path d="M0 394.7L0 438.9L80 397.7Z" fill="#1d4e6b" stroke="#1d4e6b"></path><path d="M100 0L0 0L0 81.1Z" fill="#0c2435" stroke="#0c2435"></path><path d="M0 438.9L0 540L94 458.9Z" fill="#277297" stroke="#277297"></path></g></svg>